<svg id="visual" viewBox="0 0 960 540" width="960" height="540" xmlns="http://www.w3.org/2000/svg" xmlns:xlink="http://www.w3.org/1999/xlink" version="1.1"><rect x="0" y="0" width="960" height="540" fill="#ffffff"></rect><defs><linearGradient id="grad1_0" x1="43.8%" y1="0%" x2="100%" y2="100%"><stop offset="14.444444444444446%" stop-color="#0066ff" stop-opacity="1"></stop><stop offset="85.55555555555554%" stop-color="#0066ff" stop-opacity="1"></stop></linearGradient></defs><defs><linearGradient id="grad1_1" x1="43.8%" y1="0%" x2="100%" y2="100%"><stop offset="14.444444444444446%" stop-color="#0066ff" stop-opacity="1"></stop><stop offset="85.55555555555554%" stop-color="#ffffff" stop-opacity="1"></stop></linearGradient></defs><defs><linearGradient id="grad2_0" x1="0%" y1="0%" x2="56.3%" y2="100%"><stop offset="14.444444444444446%" stop-color="#0066ff" stop-opacity="1"></stop><stop offset="85.55555555555554%" stop-color="#0066ff" stop-opacity="1"></stop></linearGradient></defs><defs><linearGradient id="grad2_1" x1="0%" y1="0%" x2="56.3%" y2="100%"><stop offset="14.444444444444446%" stop-color="#ffffff" stop-opacity="1"></stop><stop offset="85.55555555555554%" stop-color="#0066ff" stop-opacity="1"></stop></linearGradient></defs><g transform="translate(960, 0)"><path d="M0 351C-39.9 329.2 -79.9 307.4 -120.5 291C-161.2 274.6 -202.7 263.6 -239 239C-275.3 214.5 -306.5 176.4 -324.3 134.3C-342.1 92.2 -346.5 46.1 -351 0L0 0Z" fill="#acafff"></path><path d="M0 175.5C-20 164.6 -39.9 153.7 -60.3 145.5C-80.6 137.3 -101.3 131.8 -119.5 119.5C-137.7 107.2 -153.2 88.2 -162.1 67.2C-171 46.1 -173.3 23.1 -175.5 0L0 0Z" fill="#0066ff"></path></g><g transform="translate(0, 540)"><path d="M0 -351C36.7 -325.5 73.5 -300 119 -287.3C164.6 -274.7 218.9 -274.9 248.2 -248.2C277.5 -221.5 281.8 -167.9 294.7 -122.1C307.7 -76.2 329.3 -38.1 351 0L0 0Z" fill="#acafff"></path><path d="M0 -175.5C18.4 -162.7 36.7 -150 59.5 -143.7C82.3 -137.3 109.4 -137.4 124.1 -124.1C138.7 -110.8 140.9 -84 147.4 -61C153.8 -38.1 164.7 -19.1 175.5 0L0 0Z" fill="#0066ff"></path></g></svg>