<svg id="visual" viewBox="0 0 540 960" width="540" height="960" xmlns="http://www.w3.org/2000/svg" xmlns:xlink="http://www.w3.org/1999/xlink" version="1.1"><rect x="0" y="0" width="540" height="960" fill="#ffffff"></rect><defs><linearGradient id="grad1_0" x1="0%" y1="0%" x2="100%" y2="100%"><stop offset="30%" stop-color="#0066ff" stop-opacity="1"></stop><stop offset="70%" stop-color="#0066ff" stop-opacity="1"></stop></linearGradient></defs><defs><linearGradient id="grad1_1" x1="0%" y1="0%" x2="100%" y2="100%"><stop offset="30%" stop-color="#0066ff" stop-opacity="1"></stop><stop offset="70%" stop-color="#ffffff" stop-opacity="1"></stop></linearGradient></defs><defs><linearGradient id="grad2_0" x1="0%" y1="0%" x2="100%" y2="100%"><stop offset="30%" stop-color="#0066ff" stop-opacity="1"></stop><stop offset="70%" stop-color="#0066ff" stop-opacity="1"></stop></linearGradient></defs><defs><linearGradient id="grad2_1" x1="0%" y1="0%" x2="100%" y2="100%"><stop offset="30%" stop-color="#ffffff" stop-opacity="1"></stop><stop offset="70%" stop-color="#0066ff" stop-opacity="1"></stop></linearGradient></defs><g transform="translate(540, 0)"><path d="M0 351C-45.6 343.6 -91.1 336.1 -132 318.7C-172.9 301.4 -209.1 274 -242.5 242.5C-276 211.1 -306.7 175.4 -324.3 134.3C-341.9 93.2 -346.5 46.6 -351 0L0 0Z" fill="#acafff"></path><path d="M0 175.5C-22.8 171.8 -45.6 168.1 -66 159.4C-86.5 150.7 -104.5 137 -121.3 121.3C-138 105.5 -153.3 87.7 -162.1 67.2C-171 46.6 -173.2 23.3 -175.5 0L0 0Z" fill="#0066ff"></path></g><g transform="translate(0, 960)"><path d="M0 -351C47 -340.7 94.1 -330.4 126.3 -304.9C158.5 -279.4 175.8 -238.7 210.7 -210.7C245.6 -182.7 298 -167.3 324.3 -134.3C350.6 -101.3 350.8 -50.7 351 0L0 0Z" fill="#acafff"></path><path d="M0 -175.5C23.5 -170.3 47 -165.2 63.1 -152.4C79.2 -139.7 87.9 -119.4 105.4 -105.4C122.8 -91.4 149 -83.7 162.1 -67.2C175.3 -50.7 175.4 -25.3 175.5 0L0 0Z" fill="#0066ff"></path></g></svg>